<?xml version="1.0" standalone="no"?>
<!DOCTYPE svg PUBLIC "-//W3C//DTD SVG 20010904//EN"
 "http://www.w3.org/TR/2001/REC-SVG-20010904/DTD/svg10.dtd">
<svg version="1.0" xmlns="http://www.w3.org/2000/svg"
 width="1051.000000pt" height="303.000000pt" viewBox="0 0 1051.000000 303.000000"
 preserveAspectRatio="xMidYMid meet">

<g transform="translate(0.000000,303.000000) scale(0.100000,-0.100000)"
fill="#000000" stroke="none">
<path d="M20 1515 l0 -1515 5240 0 5240 0 0 1515 0 1515 -5240 0 -5240 0 0
-1515z m5890 950 c0 -95 0 -95 -25 -95 l-25 0 0 -390 0 -390 -90 0 -90 0 0 56
c0 102 36 94 -421 94 l-399 0 -10 -26 c-6 -14 -10 -48 -10 -75 l0 -49 -90 0
-90 0 0 390 0 390 -25 0 c-25 0 -25 0 -25 95 l0 95 650 0 650 0 0 -95z m-4651
-173 c70 -38 93 -135 45 -192 -50 -59 -100 -72 -161 -43 -96 45 -96 189 0 237
42 21 75 20 116 -2z m537 -7 c37 -24 56 -60 56 -109 2 -110 -121 -172 -207
-104 -57 44 -70 113 -32 169 43 65 122 84 183 44z m521 0 c33 -22 63 -74 63
-111 0 -71 -86 -143 -156 -129 -74 13 -124 95 -103 167 24 84 122 121 196 73z
m508 11 c69 -29 96 -125 55 -191 -22 -35 -73 -65 -112 -65 -37 0 -90 34 -110
71 -37 69 -16 136 56 180 37 23 65 24 111 5z m545 -14 c39 -28 63 -86 55 -129
-9 -48 -60 -99 -108 -108 -105 -20 -194 108 -135 195 46 68 127 86 188 42z
m3930 0 c39 -28 63 -86 55 -129 -9 -48 -60 -99 -108 -108 -105 -20 -194 108
-135 195 46 68 127 86 188 42z m509 10 c70 -38 93 -135 45 -192 -50 -59 -100
-72 -161 -43 -96 45 -96 189 0 237 42 21 75 20 116 -2z m537 -7 c37 -24 56
-60 56 -109 2 -110 -121 -172 -207 -104 -57 44 -70 113 -32 169 43 65 122 84
183 44z m521 0 c33 -22 63 -74 63 -111 0 -71 -86 -143 -156 -129 -74 13 -124
95 -103 167 24 84 122 121 196 73z m508 11 c69 -29 96 -125 55 -191 -22 -35
-73 -65 -112 -65 -37 0 -90 34 -110 71 -37 69 -16 136 56 180 37 23 65 24 111
5z m-4900 -516 l0 -65 -1180 0 -1180 0 -3 54 c-2 29 -1 60 2 67 5 12 192 14
1183 12 l1178 -3 0 -65z m3930 0 l0 -65 -1180 0 -1180 0 -3 54 c-2 29 -1 60 2
67 5 12 192 14 1183 12 l1178 -3 0 -65z m-1756 -516 c25 -32 26 -55 6 -94 -15
-28 -19 -30 -74 -30 -66 0 -89 16 -93 67 -4 52 33 81 104 82 28 1 41 -5 57
-25z m-241 -29 c1 -1 5 -32 9 -68 4 -47 2 -71 -7 -82 -9 -11 -9 -15 -1 -15 7
0 9 -4 6 -10 -3 -5 -22 -10 -41 -10 l-34 0 0 49 c0 57 -7 61 -106 61 -56 0
-62 -2 -67 -22 -5 -21 -19 -345 -21 -503 l-1 -70 50 -8 c72 -12 81 -19 77 -58
-2 -19 -7 -37 -10 -40 -4 -3 -85 -3 -179 -1 l-173 4 0 32 c0 49 12 59 79 64
55 4 62 7 67 29 4 14 3 111 -2 217 -5 105 -9 228 -9 273 l0 83 -43 6 c-70 10
-105 -5 -118 -51 -9 -35 -15 -40 -42 -43 l-32 -3 0 70 c0 39 -1 74 -2 79 -2 4
13 13 32 19 26 9 103 11 300 6 146 -3 266 -7 268 -8z m-3408 -9 c6 -8 10 -25
8 -38 -2 -19 -12 -24 -51 -32 -37 -6 -47 -12 -43 -25 15 -48 25 -112 25 -156
0 -27 5 -95 10 -150 6 -55 11 -133 11 -172 0 -73 0 -73 28 -73 58 0 71 -9 78
-57 5 -33 3 -48 -7 -54 -21 -13 -167 -11 -175 2 -4 7 -9 60 -11 118 -2 58 -6
130 -9 159 l-5 52 -114 0 -115 0 -2 -172 -3 -173 -45 -3 c-54 -4 -101 4 -124
21 -14 10 -17 21 -11 45 6 28 10 32 41 32 l34 0 0 168 c0 93 -3 223 -6 289
l-7 121 -53 7 c-35 4 -54 12 -59 22 -11 30 17 41 110 45 l90 3 0 -25 c2 -110
19 -272 29 -275 6 -2 62 -6 124 -9 l112 -6 -5 105 c-4 58 -13 121 -21 140 -7
19 -14 48 -14 64 0 28 2 30 48 34 102 8 120 7 132 -7z m4785 -75 c44 -10 97
-25 117 -34 41 -17 48 -14 48 19 0 18 7 24 35 30 19 3 41 4 48 1 21 -8 36
-151 21 -191 -4 -11 -19 -16 -44 -16 -29 0 -41 6 -54 24 -9 15 -44 35 -91 53
-41 16 -73 32 -70 35 8 8 -98 -4 -116 -13 -9 -5 -19 -20 -21 -34 -14 -71 32
-127 120 -146 31 -7 74 -21 94 -31 21 -10 44 -18 52 -18 15 0 116 -87 114 -98
-1 -4 2 -23 6 -43 13 -62 -9 -118 -70 -176 -30 -28 -71 -57 -91 -64 -53 -17
-149 -5 -195 26 -21 14 -41 25 -45 25 -5 0 -25 11 -45 25 -30 20 -37 22 -42
10 -7 -19 -56 -19 -82 -1 -16 12 -19 26 -18 93 0 43 4 91 8 106 6 24 11 27 51
27 41 0 45 -2 50 -27 12 -58 38 -92 103 -136 77 -51 105 -60 162 -51 50 8 89
54 97 111 5 35 1 42 -39 79 -37 35 -55 43 -114 54 -149 28 -234 99 -234 196 0
45 4 56 38 93 38 42 99 89 117 90 6 0 46 -8 90 -18z m-3691 -113 c25 -6 53
-24 73 -46 l33 -36 70 34 c103 50 147 41 234 -48 44 -46 56 -88 76 -256 13
-105 13 -106 39 -104 24 3 26 0 32 -52 4 -30 5 -58 3 -62 -3 -5 -54 -8 -113
-8 -120 0 -127 3 -126 60 0 27 5 35 20 38 11 2 23 7 27 11 4 4 9 59 10 123 2
119 -6 148 -39 148 -8 0 -21 7 -29 15 -38 38 -129 28 -152 -15 -9 -17 -12 -59
-10 -133 3 -90 6 -111 21 -121 20 -15 22 -38 6 -68 -10 -18 -17 -19 -82 -13
-40 4 -75 12 -79 19 -14 21 -8 53 12 62 20 9 21 18 22 154 l0 144 -33 23 c-35
24 -88 30 -120 13 -18 -10 -19 -23 -19 -180 l0 -169 28 -3 c25 -3 27 -6 27
-48 l0 -45 -40 -5 c-22 -3 -77 -4 -122 -2 l-82 4 -10 35 c-6 20 -8 40 -6 44 3
4 25 15 49 24 54 21 56 28 56 223 l0 145 -32 -5 c-47 -7 -59 -1 -52 28 3 13 1
30 -5 38 -38 46 175 69 313 34z m2552 -23 c6 -42 2 -130 -12 -312 l-6 -73 35
0 c33 0 35 -2 46 -44 6 -25 11 -61 11 -80 l0 -36 -144 0 c-115 0 -146 3 -156
15 -20 24 -5 46 27 40 25 -5 25 -5 -5 9 -28 13 -33 20 -30 43 3 26 7 28 49 31
l46 3 6 112 c4 62 7 140 7 174 0 67 2 65 -64 75 -26 4 -40 30 -32 61 l6 27
105 0 104 0 7 -45z m288 34 c14 -7 23 -16 20 -20 -10 -16 50 -22 110 -11 58
11 63 10 129 -20 77 -35 148 -105 167 -164 8 -23 10 -59 5 -99 -5 -52 -15 -77
-48 -128 -58 -90 -92 -115 -183 -137 -69 -17 -81 -18 -112 -5 -55 24 -75 20
-68 -12 3 -16 8 -72 12 -125 3 -54 10 -98 14 -98 7 0 32 -82 27 -86 -1 -1 -39
-4 -85 -6 -89 -5 -97 -2 -111 50 -8 26 -6 31 15 42 l24 13 -7 351 c-5 279 -9
353 -19 359 -18 10 -19 93 -1 100 23 10 86 7 111 -4z m-1827 -14 c62 -26 100
-62 127 -120 30 -65 32 -80 22 -124 l-8 -33 -202 3 -201 4 4 -50 c3 -51 28
-114 59 -151 43 -51 122 -75 169 -50 38 19 87 72 79 85 -4 5 7 25 23 43 27 30
31 31 54 19 24 -13 97 -102 97 -119 0 -5 -12 -19 -26 -33 -24 -22 -26 -23 -38
-6 -17 22 -16 23 -75 -17 -110 -74 -270 -69 -354 12 -68 66 -98 238 -62 358
23 79 88 171 127 183 53 15 165 13 205 -4z m-1574 -53 c55 -29 137 -102 137
-121 0 -7 -4 -9 -10 -6 -5 3 -10 2 -10 -4 0 -5 8 -14 18 -20 14 -8 17 -24 17
-100 l0 -90 -60 -87 c-38 -55 -73 -94 -95 -105 -48 -26 -172 -26 -232 0 -61
27 -123 95 -148 164 -20 54 -21 60 -7 105 9 26 18 60 22 76 8 36 63 122 102
159 39 36 136 68 183 61 19 -3 57 -17 83 -32z"/>
<path d="M4660 2465 l0 -35 600 0 600 0 0 35 0 35 -600 0 -600 0 0 -35z"/>
<path d="M4710 2240 l0 -130 550 0 550 0 0 130 0 130 -550 0 -550 0 0 -130z
m650 15 c10 -12 10 -18 0 -30 -9 -11 -34 -15 -100 -15 -66 0 -91 4 -100 15
-10 12 -10 18 0 30 9 11 34 15 100 15 66 0 91 -4 100 -15z"/>
<path d="M4710 1930 l0 -130 550 0 550 0 0 130 0 130 -550 0 -550 0 0 -130z
m653 6 c11 -27 -17 -36 -109 -36 -93 0 -111 7 -100 35 8 21 201 22 209 1z"/>
<path d="M4710 1690 l0 -50 40 0 40 0 0 50 0 50 -40 0 -40 0 0 -50z"/>
<path d="M5728 1690 l4 -50 39 0 39 0 0 50 0 50 -42 0 -43 0 3 -50z"/>
<path d="M6188 1203 c7 -3 16 -2 19 1 4 3 -2 6 -13 5 -11 0 -14 -3 -6 -6z"/>
<path d="M7698 1143 c6 -2 18 -2 25 0 6 3 1 5 -13 5 -14 0 -19 -2 -12 -5z"/>
<path d="M7995 1140 c3 -5 10 -10 16 -10 5 0 9 5 9 10 0 6 -7 10 -16 10 -8 0
-12 -4 -9 -10z"/>
<path d="M7781 856 c4 -4 21 -11 39 -16 19 -5 29 -6 24 -1 -10 10 -72 26 -63
17z"/>
<path d="M7950 771 c14 -11 30 -21 35 -21 11 0 -7 14 -40 31 -13 7 -12 3 5
-10z"/>
<path d="M7783 463 c9 -2 25 -2 35 0 9 3 1 5 -18 5 -19 0 -27 -2 -17 -5z"/>
<path d="M3978 1023 c7 -3 16 -2 19 1 4 3 -2 6 -13 5 -11 0 -14 -3 -6 -6z"/>
<path d="M4070 996 c0 -2 7 -7 16 -10 8 -3 12 -2 9 4 -6 10 -25 14 -25 6z"/>
<path d="M4395 990 c3 -5 14 -10 23 -10 15 0 15 2 2 10 -20 13 -33 13 -25 0z"/>
<path d="M3814 971 c3 -5 15 -7 26 -4 28 7 25 13 -6 13 -14 0 -23 -4 -20 -9z"/>
<path d="M4055 960 c27 -12 43 -12 25 0 -8 5 -22 9 -30 9 -10 0 -8 -3 5 -9z"/>
<path d="M4368 953 c6 -2 18 -2 25 0 6 3 1 5 -13 5 -14 0 -19 -2 -12 -5z"/>
<path d="M4210 929 c0 -5 5 -7 10 -4 6 3 10 8 10 11 0 2 -4 4 -10 4 -5 0 -10
-5 -10 -11z"/>
<path d="M4420 895 c7 -9 15 -13 17 -11 7 7 -7 26 -19 26 -6 0 -6 -6 2 -15z"/>
<path d="M3912 870 c0 -14 2 -19 5 -12 2 6 2 18 0 25 -3 6 -5 1 -5 -13z"/>
<path d="M3890 589 c0 -5 5 -7 10 -4 6 3 10 8 10 11 0 2 -4 4 -10 4 -5 0 -10
-5 -10 -11z"/>
<path d="M3791 524 c0 -11 3 -14 6 -6 3 7 2 16 -1 19 -3 4 -6 -2 -5 -13z"/>
<path d="M4528 533 c7 -3 16 -2 19 1 4 3 -2 6 -13 5 -11 0 -14 -3 -6 -6z"/>
<path d="M6598 1013 c7 -3 16 -2 19 1 4 3 -2 6 -13 5 -11 0 -14 -3 -6 -6z"/>
<path d="M6556 945 c-3 -9 -5 -49 -5 -88 l2 -72 7 85 c8 87 7 103 -4 75z"/>
<path d="M6473 563 c9 -2 25 -2 35 0 9 3 1 5 -18 5 -19 0 -27 -2 -17 -5z"/>
<path d="M7073 983 c9 -2 23 -2 30 0 6 3 -1 5 -18 5 -16 0 -22 -2 -12 -5z"/>
<path d="M7075 920 c-3 -6 1 -7 9 -4 18 7 21 14 7 14 -6 0 -13 -4 -16 -10z"/>
<path d="M7015 889 c-5 -5 -21 -17 -34 -27 -21 -17 -24 -27 -29 -130 -4 -100
-3 -115 14 -133 23 -25 82 -53 108 -50 37 5 121 58 144 91 19 29 22 43 17 93
-6 69 -35 127 -75 150 -31 19 -128 23 -145 6z"/>
<path d="M6874 685 c0 -60 1 -84 3 -52 2 32 2 81 0 110 -2 29 -3 3 -3 -58z"/>
<path d="M7311 704 c0 -11 3 -14 6 -6 3 7 2 16 -1 19 -3 4 -6 -2 -5 -13z"/>
<path d="M6873 510 c0 -30 2 -43 4 -27 2 15 2 39 0 55 -2 15 -4 2 -4 -28z"/>
<path d="M6993 513 c9 -2 23 -2 30 0 6 3 -1 5 -18 5 -16 0 -22 -2 -12 -5z"/>
<path d="M6881 304 c0 -11 3 -14 6 -6 3 7 2 16 -1 19 -3 4 -6 -2 -5 -13z"/>
<path d="M4968 1033 c7 -3 16 -2 19 1 4 3 -2 6 -13 5 -11 0 -14 -3 -6 -6z"/>
<path d="M5086 975 c10 -8 23 -15 28 -15 6 0 1 7 -10 15 -10 8 -23 15 -28 15
-6 0 -1 -7 10 -15z"/>
<path d="M4948 955 c-45 -15 -99 -67 -80 -79 4 -2 57 -10 118 -16 60 -6 124
-15 142 -20 28 -7 32 -6 32 11 0 30 -15 53 -53 82 -44 33 -99 41 -159 22z"/>
<path d="M4953 833 c9 -2 23 -2 30 0 6 3 -1 5 -18 5 -16 0 -22 -2 -12 -5z"/>
<path d="M5078 463 c6 -2 18 -2 25 0 6 3 1 5 -13 5 -14 0 -19 -2 -12 -5z"/>
<path d="M5028 453 c6 -2 18 -2 25 0 6 3 1 5 -13 5 -14 0 -19 -2 -12 -5z"/>
<path d="M3383 983 c9 -2 23 -2 30 0 6 3 -1 5 -18 5 -16 0 -22 -2 -12 -5z"/>
<path d="M3468 983 c7 -3 16 -2 19 1 4 3 -2 6 -13 5 -11 0 -14 -3 -6 -6z"/>
<path d="M3289 943 c-13 -16 -12 -17 4 -4 9 7 17 15 17 17 0 8 -8 3 -21 -13z"/>
<path d="M3388 913 c6 -2 18 -2 25 0 6 3 1 5 -13 5 -14 0 -19 -2 -12 -5z"/>
<path d="M3430 893 c-92 -9 -96 -11 -138 -73 -74 -110 -64 -211 27 -274 83
-58 175 -36 238 57 29 44 31 51 27 124 l-3 78 -50 48 c-27 26 -53 46 -58 45
-4 0 -24 -3 -43 -5z"/>
<path d="M3181 594 c0 -11 3 -14 6 -6 3 7 2 16 -1 19 -3 4 -6 -2 -5 -13z"/>
<path d="M3258 493 c7 -3 16 -2 19 1 4 3 -2 6 -13 5 -11 0 -14 -3 -6 -6z"/>
<path d="M3448 463 c7 -3 16 -2 19 1 4 3 -2 6 -13 5 -11 0 -14 -3 -6 -6z"/>
</g>
</svg>
