<?xml version="1.0" standalone="no"?>
<!DOCTYPE svg PUBLIC "-//W3C//DTD SVG 20010904//EN"
 "http://www.w3.org/TR/2001/REC-SVG-20010904/DTD/svg10.dtd">
<svg version="1.0" xmlns="http://www.w3.org/2000/svg"
 width="512.000000pt" height="512.000000pt" viewBox="0 0 512.000000 512.000000"
 preserveAspectRatio="xMidYMid meet">
<metadata>
Created by potrace 1.14, written by Peter Selinger 2001-2017
</metadata>
<g transform="translate(0.000000,512.000000) scale(0.100000,-0.100000)"
fill="#000000" stroke="none">
<path d="M3455 5113 c-16 -2 -64 -10 -105 -19 -41 -8 -84 -16 -96 -18 -48 -10
-209 -68 -286 -105 -293 -139 -545 -387 -693 -683 -45 -90 -74 -167 -121 -326
-3 -9 -15 -4 -41 17 -27 22 -48 31 -75 31 -40 0 -58 -12 -173 -125 -34 -33
-189 -184 -345 -335 -156 -151 -294 -285 -307 -298 l-23 -23 0 125 c0 76 -5
135 -12 151 -23 52 -44 55 -332 55 -146 0 -276 -4 -290 -10 -14 -5 -33 -21
-43 -37 -17 -25 -18 -62 -20 -488 0 -253 -2 -463 -2 -466 -1 -6 -195 -198
-371 -367 -114 -110 -115 -111 -115 -157 0 -45 2 -49 85 -128 190 -182 293
-273 322 -285 44 -19 73 -8 132 48 29 28 55 48 57 46 2 -2 4 -226 3 -498 l0
-493 -245 -2 c-134 -1 -254 -2 -266 -2 -13 -1 -37 -14 -55 -30 l-33 -29 0
-284 c-1 -155 3 -295 8 -311 5 -15 20 -36 34 -47 25 -20 42 -20 1055 -20 1157
0 1077 -5 1100 73 10 33 9 44 -6 72 -10 19 -26 37 -35 42 -9 4 -452 10 -986
13 l-970 5 0 158 -1 157 36 0 c19 1 1078 2 2352 3 1538 1 2319 -1 2321 -8 2
-5 3 -77 3 -160 l-1 -150 -970 -5 c-533 -3 -977 -9 -986 -13 -22 -11 -49 -61
-49 -92 0 -17 12 -39 34 -61 l34 -34 1035 0 c1018 0 1035 0 1060 20 14 11 29
32 34 47 7 22 10 481 4 579 -2 29 -37 64 -72 71 -16 3 -29 7 -29 10 0 26 -35
163 -52 200 -74 169 -240 311 -418 357 -81 21 -257 15 -340 -12 -74 -24 -173
-82 -223 -129 l-34 -31 -59 19 c-111 37 -243 27 -348 -26 l-66 -33 0 325 c0
293 2 324 16 313 8 -8 33 -30 55 -51 44 -42 83 -55 120 -40 33 12 380 334 400
371 23 41 13 81 -32 129 -25 26 -35 43 -27 45 610 180 1012 639 1106 1261 4
28 7 124 6 215 -1 234 -40 405 -139 617 -202 431 -610 747 -1085 839 -79 15
-359 26 -435 17z m410 -216 c273 -60 481 -172 670 -362 195 -195 302 -396 360
-678 45 -216 20 -498 -60 -703 -159 -404 -501 -704 -915 -804 -47 -11 -90 -20
-96 -20 -6 0 -77 64 -158 143 l-147 142 98 -1 c332 -5 652 166 838 447 353
530 127 1255 -466 1491 -376 151 -795 63 -1084 -227 -191 -191 -291 -431 -293
-701 -1 -60 -4 -111 -7 -112 -4 -2 -69 57 -145 131 -99 96 -138 140 -135 153
2 11 9 42 15 69 6 28 12 59 14 71 17 91 108 293 179 399 214 318 534 515 937
578 59 9 330 -2 395 -16z m-139 -481 c128 -12 294 -85 402 -175 289 -243 376
-630 218 -966 -141 -298 -447 -481 -771 -462 -121 8 -195 27 -300 77 -67 32
-100 58 -207 162 -135 132 -169 180 -211 298 -132 380 33 797 388 981 154 80
290 104 481 85z m-1672 -658 c7 -7 136 -132 286 -278 151 -146 304 -294 340
-330 37 -36 190 -184 340 -330 151 -146 350 -340 444 -431 94 -92 215 -208
268 -259 l98 -93 -53 -50 c-28 -28 -73 -70 -98 -95 l-47 -44 -238 235 c-132
129 -291 285 -354 347 -63 62 -298 292 -522 512 -224 220 -415 406 -425 414
-10 7 -35 14 -56 14 -48 0 21 64 -737 -680 -216 -212 -442 -434 -504 -494 -61
-60 -165 -162 -231 -227 l-120 -119 -99 92 -98 93 123 121 c68 67 147 143 175
170 28 27 173 168 323 314 151 146 304 294 341 330 37 36 187 182 334 325 348
338 490 475 494 475 2 0 9 -6 16 -12z m-1064 -561 l0 -163 -139 -133 c-76 -73
-143 -133 -147 -132 -5 0 -9 134 -9 296 l0 295 147 0 148 0 0 -163z m1249
-261 c108 -106 248 -244 311 -306 63 -62 251 -246 418 -409 l302 -296 0 -601
0 -602 -370 0 c-334 1 -370 2 -370 17 -1 9 -1 230 -1 491 -1 520 0 516 -60
540 -38 16 -839 16 -868 1 -54 -29 -53 -21 -53 -554 l-1 -494 -371 1 -371 1
-1 599 0 599 32 31 c17 17 208 204 424 416 573 563 774 759 779 760 2 0 92
-87 200 -194z m37 -1355 l52 -1 0 -429 0 -429 -289 0 -289 0 0 89 c0 49 -1
226 -1 394 0 168 1 320 1 339 0 28 4 35 23 38 18 2 243 2 503 -1z m2278 -514
c77 -36 138 -86 182 -151 42 -62 80 -176 63 -187 -7 -4 -306 -7 -665 -7 -636
1 -654 1 -654 20 0 28 44 109 77 140 40 39 117 70 177 72 52 2 83 -7 173 -51
72 -34 97 -27 166 51 57 64 140 117 213 135 22 6 77 9 124 8 68 -3 97 -9 144
-30z"/>
<path d="M3565 4208 c-32 -18 -55 -49 -55 -73 0 -16 -8 -25 -26 -29 -40 -10
-100 -52 -128 -88 -47 -62 -65 -117 -62 -188 4 -108 62 -191 166 -240 l46 -22
0 -118 c-1 -65 -3 -121 -7 -124 -3 -3 -27 12 -53 34 -60 50 -100 53 -145 11
-76 -71 -8 -182 150 -243 32 -13 59 -29 59 -36 0 -8 13 -27 29 -43 49 -49 126
-36 155 25 11 23 24 36 37 36 28 0 99 35 141 70 20 17 49 56 64 87 50 102 35
218 -43 320 -31 41 -136 113 -165 113 -10 0 -18 3 -19 8 -3 28 -4 192 -1 192
2 0 17 -11 34 -25 79 -67 196 11 159 107 -16 41 -69 88 -137 119 -46 21 -63
34 -68 54 -7 28 -59 65 -91 65 -11 0 -29 -6 -40 -12z m-58 -358 c-4 -27 -17
-38 -17 -13 0 18 8 33 17 33 1 0 2 -9 0 -20z m238 -405 c24 -40 25 -48 15 -80
-13 -39 -49 -67 -51 -40 -7 89 -4 165 7 165 2 0 15 -20 29 -45z"/>
<path d="M2503 181 c-35 -22 -49 -62 -38 -112 8 -35 55 -69 97 -69 14 0 40 11
56 25 53 44 49 125 -7 158 -38 22 -69 21 -108 -2z"/>
</g>
</svg>
